HIERARCHY
ROOT hip
{
  OFFSET 0 0 0
  CHANNELS 6 Xposition Yposition Zposition Zrotation Yrotation Xrotation
  JOINT abdomen
  {
    OFFSET 0 20.6881 -0.73152
    CHANNELS 3 Zrotation Xrotation Yrotation
    JOINT chest
    {
      OFFSET 0 11.7043 -0.48768
      CHANNELS 3 Zrotation Xrotation Yrotation
      JOINT neck
      {
        OFFSET 0 22.1894 -2.19456
        CHANNELS 3 Zrotation Xrotation Yrotation
        JOINT head
        {
          OFFSET -0.24384 7.07133 1.2192
          CHANNELS 3 Zrotation Xrotation Yrotation
          JOINT leftEye
          {
            OFFSET 4.14528 8.04674 8.04672
            CHANNELS 3 Zrotation Xrotation Yrotation
            End Site
            {
              OFFSET 1 0 0
            }
          }
          JOINT rightEye
          {
            OFFSET -3.6576 8.04674 8.04672
            CHANNELS 3 Zrotation Xrotation Yrotation
            End Site
            {
              OFFSET 1 0 0
            }
          }
        }
      }
      JOINT rCollar
      {
        OFFSET -2.68224 19.2634 -4.8768
        CHANNELS 3 Zrotation Xrotation Yrotation
        JOINT rShldr
        {
          OFFSET -8.77824 -1.95073 1.46304
          CHANNELS 3 Zrotation Xrotation Yrotation
          JOINT rForeArm
          {
            OFFSET -28.1742 -1.7115 0.48768
            CHANNELS 3 Zrotation Xrotation Yrotation
            JOINT rHand
            {
              OFFSET -22.5879 0.773209 7.07136
              CHANNELS 3 Zrotation Xrotation Yrotation
              JOINT rThumb1
              {
                OFFSET -1.2192 -0.487915 3.41376
                CHANNELS 3 Zrotation Xrotation Yrotation
                JOINT rThumb2
                {
                  OFFSET -3.37035 -0.52449 3.41376
                  CHANNELS 3 Zrotation Xrotation Yrotation
                  End Site
                  {
                    OFFSET -1.78271 -1.18214 1.43049
                  }
                }
              }
              JOINT rIndex1
              {
                OFFSET -7.75947 0.938293 5.60832
                CHANNELS 3 Zrotation Xrotation Yrotation
                JOINT rIndex2
                {
                  OFFSET -2.54057 -0.884171 1.56538
                  CHANNELS 3 Zrotation Xrotation Yrotation
                  End Site
                  {
                    OFFSET -1.62519 -0.234802 1.16502
                  }
                }
              }
              JOINT rMid1
              {
                OFFSET -8.24714 1.18213 3.41376
                CHANNELS 3 Zrotation Xrotation Yrotation
                JOINT rMid2
                {
                  OFFSET -3.10165 -0.590103 1.0647
                  CHANNELS 3 Zrotation Xrotation Yrotation
                  End Site
                  {
                    OFFSET -2.48547 -0.328903 0.83742
                  }
                }
              }
              JOINT rRing1
              {
                OFFSET -8.82822 0.546677 1.51678
                CHANNELS 3 Zrotation Xrotation Yrotation
                JOINT rRing2
                {
                  OFFSET -2.60934 -0.819778 -0.0198488
                  CHANNELS 3 Zrotation Xrotation Yrotation
                  End Site
                  {
                    OFFSET -2.33842 -0.294052 0.168128
                  }
                }
              }
              JOINT rPinky1
              {
                OFFSET -8.27202 -0.0477905 -0.4584
                CHANNELS 3 Zrotation Xrotation Yrotation
                JOINT rPinky2
                {
                  OFFSET -1.82734 -0.647385 -0.700984
                  CHANNELS 3 Zrotation Xrotation Yrotation
                  End Site
                  {
                    OFFSET -1.69225 -0.51767 -0.607171
                  }
                }
              }
            }
          }
        }
      }
      JOINT lCollar
      {
        OFFSET 2.68224 19.2634 -4.8768
        CHANNELS 3 Zrotation Xrotation Yrotation
        JOINT lShldr
        {
          OFFSET 8.77824 -1.95073 1.46304
          CHANNELS 3 Zrotation Xrotation Yrotation
          JOINT lForeArm
          {
            OFFSET 28.1742 -1.7115 0.48768
            CHANNELS 3 Zrotation Xrotation Yrotation
            JOINT lHand
            {
              OFFSET 22.5879 0.773209 7.07136
              CHANNELS 3 Zrotation Xrotation Yrotation
              JOINT lThumb1
              {
                OFFSET 1.2192 -0.487915 3.41376
                CHANNELS 3 Zrotation Xrotation Yrotation
                JOINT lThumb2
                {
                  OFFSET 3.37035 -0.52449 3.41376
                  CHANNELS 3 Zrotation Xrotation Yrotation
                  End Site
                  {
                    OFFSET 1.78271 -1.18214 1.43049
                  }
                }
              }
              JOINT lIndex1
              {
                OFFSET 7.75947 0.938293 5.60832
                CHANNELS 3 Zrotation Xrotation Yrotation
                JOINT lIndex2
                {
                  OFFSET 2.54057 -0.884171 1.56538
                  CHANNELS 3 Zrotation Xrotation Yrotation
                  End Site
                  {
                    OFFSET 1.62519 -0.234802 1.16502
                  }
                }
              }
              JOINT lMid1
              {
                OFFSET 8.24714 1.18213 3.41376
                CHANNELS 3 Zrotation Xrotation Yrotation
                JOINT lMid2
                {
                  OFFSET 3.10165 -0.590103 1.0647
                  CHANNELS 3 Zrotation Xrotation Yrotation
                  End Site
                  {
                    OFFSET 2.48547 -0.328903 0.83742
                  }
                }
              }
              JOINT lRing1
              {
                OFFSET 8.82822 0.546677 1.51678
                CHANNELS 3 Zrotation Xrotation Yrotation
                JOINT lRing2
                {
                  OFFSET 2.60934 -0.819778 -0.0198488
                  CHANNELS 3 Zrotation Xrotation Yrotation
                  End Site
                  {
                    OFFSET 2.33842 -0.294052 0.168128
                  }
                }
              }
              JOINT lPinky1
              {
                OFFSET 8.27202 -0.0477905 -0.4584
                CHANNELS 3 Zrotation Xrotation Yrotation
                JOINT lPinky2
                {
                  OFFSET 1.82734 -0.647385 -0.700984
                  CHANNELS 3 Zrotation Xrotation Yrotation
                  End Site
                  {
                    OFFSET 1.69225 -0.51767 -0.607171
                  }
                }
              }
            }
          }
        }
      }
    }
  }
  JOINT rButtock
  {
    OFFSET -8.77824 4.35084 1.2192
    CHANNELS 3 Zrotation Xrotation Yrotation
    JOINT rThigh
    {
      OFFSET 0 -1.70687 -2.19456
      CHANNELS 3 Zrotation Xrotation Yrotation
      JOINT rShin
      {
        OFFSET 0 -36.8199 0.73152
        CHANNELS 3 Zrotation Xrotation Yrotation
        JOINT rFoot
        {
          OFFSET 0.73152 -45.1104 -5.12064
          CHANNELS 3 Zrotation Xrotation Yrotation
          End Site
          {
            OFFSET -1.1221 -3.69964 12.103
          }
        }
      }
    }
  }
  JOINT lButtock
  {
    OFFSET 8.77824 4.35084 1.2192
    CHANNELS 3 Zrotation Xrotation Yrotation
    JOINT lThigh
    {
      OFFSET 0 -1.70687 -2.19456
      CHANNELS 3 Zrotation Xrotation Yrotation
      JOINT lShin
      {
        OFFSET 0 -36.8199 0.73152
        CHANNELS 3 Zrotation Xrotation Yrotation
        JOINT lFoot
        {
          OFFSET -0.73152 -45.1104 -5.12064
          CHANNELS 3 Zrotation Xrotation Yrotation
          End Site
          {
            OFFSET 1.1221 -3.69964 12.103
          }
        }
      }
    }
  }
}
MOTION
Frames:	9
Frame Time:	0.00833333
0.0 0.0 0.0 0.0 0.0 0.0 0.0 0.0 0.0 0.0 0.0 0.0 0.0 0.0 0.0 0.0 0.0 0.0 0.0 0.0 0.0 0.0 0.0 0.0 0.0 0.0 0.0 0.0 0.0 0.0 0.0 0.0 0.0 0.0 0.0 0.0 0.0 0.0 0.0 0.0 0.0 0.0 0.0 0.0 0.0 0.0 0.0 0.0 0.0 0.0 0.0 0.0 0.0 0.0 0.0 0.0 0.0 0.0 0.0 0.0 0.0 0.0 0.0 0.0 0.0 0.0 0.0 0.0 0.0 0.0 0.0 0.0 0.0 0.0 0.0 0.0 0.0 0.0 0.0 0.0 0.0 0.0 0.0 0.0 0.0 0.0 0.0 0.0 0.0 0.0 0.0 0.0 0.0 0.0 0.0 0.0 0.0 0.0 0.0 0.0 0.0 0.0 0.0 0.0 0.0 0.0 0.0 0.0 0.0 0.0 0.0 0.0 0.0 0.0 0.0 0.0 0.0 0.0 0.0 0.0 0.0 0.0 0.0 0.0 0.0 0.0 0.0 0.0 0.0 0.0 0.0 0.0
277.012 53.308699999999995 91.4222 -0.0 -0.0 -0.0 0.0 0.0 0.0 0.0 -0.0 -0.0 10.034043 15.923643 138.388627 -2.970543 18.523473 -139.311015 0.0 -0.0 -0.0 0.0 -0.0 -0.0 -155.563175 -3.9013 161.92047 -139.152317 37.964855 153.909579 1.726264 35.963088 1.468731 -2.737622 8.753638 -0.090583 93.028426 -51.083891 40.500925 -105.790442 -87.075199 -143.810725 10.281995 -18.182542 -4.585706 10.761673 -10.188697 2.352396 2.100045 -6.305437 -1.081362 19.893848 -51.166417 2.664999 -145.119465 0.267731 -179.212447 -136.710388 -45.952136 -169.425616 8.580128 27.211748 7.533938 -26.001531 -39.114986 -24.537676 155.563175 -3.9013 -161.92047 139.152317 37.964855 -153.909579 170.742728 -1.062008 -146.274566 -159.693871 -40.749716 -137.62316 78.030619 38.689342 -42.41267 158.808573 -37.369758 -82.352006 -10.211155 -18.05077 4.56389 168.906038 -10.966261 -106.399052 82.840589 61.110826 -74.532293 0.079011 11.606905 1.051832 0.021291 -1.725169 0.542387 1.72027 18.33504 -2.954792 -12.252484 41.424931 -10.280249 26.312425 -38.762495 25.261084 -180.0 75.749642 -0.0 -180.0 73.473292 -180.0 -7.511393 -8.077316 -88.259308 -6.100058 55.541405 -76.204715 -180.0 75.749642 -0.0 -180.0 73.473292 -180.0 7.511393 -8.077316 88.259308 4.122154 42.718369 81.649684
277.009 53.305 91.428 -0.0 -0.0 -0.0 0.0 0.0 0.0 0.0 -0.0 -0.0 -8.136416 9.494574 -76.224513 11.141864 5.657194 76.3491 0.0 -0.0 -0.0 0.0 -0.0 -0.0 -9.651699 34.836178 11.199233 7.248746 13.129221 -3.006965 -171.100206 74.698524 140.047773 168.139364 -23.290547 142.780736 57.544555 -43.951007 16.645521 -14.339987 -16.527284 -20.965798 -1.956686 3.105523 1.14084 173.70096 -30.59169 107.730599 -125.644075 49.839986 115.274123 4.474617 1.154359 -2.433615 -72.757246 -72.143382 -89.772159 8.790431 26.633668 10.693916 -0.529991 -1.364052 -0.490385 -160.819067 51.995628 -149.994266 155.762543 -5.234697 -162.200114 -38.534772 -50.998113 -22.767741 -178.3188 -30.139443 -176.295389 7.885036 24.218006 -0.850777 1.508961 1.483266 -0.250885 136.876509 -39.573113 -117.808517 0.327682 0.529888 -0.186114 -78.510637 -60.083036 -38.315712 160.09819 -4.901163 -142.968881 0.26131 17.832704 -3.649226 0.000142 -0.018512 0.005816 1.064412 12.264746 -1.668033 -0.098846 0.258289 -0.091255 143.390665 -6.796877 138.260785 -180.0 75.749642 -0.0 -180.0 73.473292 -180.0 -7.511393 -8.077316 -88.259308 -6.100058 55.541405 -76.204715 -180.0 75.749642 -0.0 -180.0 73.473292 -180.0 7.511393 -8.077316 88.259308 4.122154 42.718369 81.649684
276.987 53.301 91.4334 -0.0 -0.0 -0.0 0.0 0.0 0.0 0.0 -0.0 -0.0 -8.136416 9.494574 -76.224513 11.141864 5.657194 76.3491 0.0 -0.0 -0.0 0.0 -0.0 -0.0 -9.651699 34.836178 11.199233 7.248746 13.129221 -3.006965 173.707605 49.892274 152.983369 176.398491 1.021733 145.265658 -171.818129 -9.500219 89.947791 124.481133 -58.740346 90.106171 -108.427673 34.160977 91.742903 -172.566059 -43.389702 123.377001 0.541241 -1.589941 -0.294737 -166.869743 -5.852497 143.342447 -0.021306 -1.72602 -0.542654 1.602505 -44.828677 -5.00821 -1.203484 -3.047547 -1.116064 -150.025183 12.631245 -144.055435 155.762543 -5.234697 -162.200114 -38.534772 -50.998113 -22.767741 -178.3188 -30.139443 -176.295389 7.885036 24.218006 -0.850777 1.508961 1.483266 -0.250885 123.066155 -15.533056 -110.154004 0.327682 0.529888 -0.186114 -78.510637 -60.083036 -38.315712 89.835461 60.702148 -81.262754 10.288331 36.117811 -6.623097 31.710267 -66.108601 46.284392 142.309214 39.747738 -155.549411 -0.098846 0.258289 -0.091255 82.41725 -54.546307 79.533732 -180.0 75.749642 -0.0 -180.0 73.473292 -180.0 -7.494917 -9.67229 -74.310996 16.345246 61.562083 -101.871377 -180.0 75.749642 -0.0 -180.0 73.473292 -180.0 7.494917 -9.67229 74.310996 -14.194477 57.97641 101.152475
276.954 53.2987 91.4406 -0.0 -0.0 -0.0 -0.0 0.0 -0.0 -0.0 -0.0 0.0 12.074363 9.276161 97.602307 -7.588179 13.190878 -97.706844 0.0 -0.0 -0.0 0.0 -0.0 -0.0 -158.514676 -30.702155 167.038382 5.710848 18.820885 22.206795 0.058756 -76.881949 -37.342193 166.479388 -27.35623 141.928597 -10.48169 9.910501 2.492634 0.428706 0.861033 6.194889 11.98129 -21.346868 -5.061629 -167.427684 -9.900182 105.945327 6.533059 -20.414937 -2.717988 -35.45456 52.608746 27.542062 -66.264309 72.868403 83.836867 -176.991052 72.346793 -171.857673 -145.173549 12.06758 -141.82295 18.248023 40.327865 5.867253 157.678206 -66.559354 -175.832745 116.653145 60.669511 -121.958568 -3.89891 -3.55731 -0.802752 3.969939 12.632646 -0.00541 0.441471 0.435329 -0.069465 140.957085 -46.719998 -119.658513 -12.216524 -21.784719 5.120188 -104.694067 -57.710187 -56.455793 10.975806 25.789868 -7.640203 -161.005143 -69.730021 -130.526292 -0.000474 0.063775 -0.020036 150.341211 60.771714 -154.135146 74.132069 -51.746829 72.618337 3.94661 -18.415899 5.397151 -180.0 75.749642 -0.0 -180.0 73.473292 -180.0 -4.290492 -3.125281 -141.341617 131.31903 -63.18357 20.452859 -180.0 75.749642 -0.0 -180.0 73.473292 -180.0 4.290492 -3.125281 141.341617 -131.31903 -63.18357 -20.452859
276.925 53.2988 91.4513 -0.0 -0.0 -0.0 -0.0 0.0 -0.0 -0.0 -0.0 0.0 12.074363 9.276161 97.602307 -7.588179 13.190878 -97.706844 0.0 -0.0 -0.0 0.0 -0.0 -0.0 -158.514676 -30.702155 167.038382 5.710848 18.820885 22.206795 0.058756 -76.881949 -37.342193 166.479388 -27.35623 141.928597 -10.48169 9.910501 2.492634 0.428706 0.861033 6.194889 11.98129 -21.346868 -5.061629 -167.427684 -9.900182 105.945327 6.533059 -20.414937 -2.717988 -35.45456 52.608746 27.542062 -66.264309 72.868403 83.836867 -176.991052 72.346793 -171.857673 -145.173549 12.06758 -141.82295 18.248023 40.327865 5.867253 157.678206 -66.559354 -175.832745 116.653145 60.669511 -121.958568 -3.89891 -3.55731 -0.802752 3.969939 12.632646 -0.00541 0.441471 0.435329 -0.069465 140.957085 -46.719998 -119.658513 -12.216524 -21.784719 5.120188 -104.694067 -57.710187 -56.455793 10.975806 25.789868 -7.640203 -161.005143 -69.730021 -130.526292 -0.000474 0.063775 -0.020036 150.341211 60.771714 -154.135146 74.132069 -51.746829 72.618337 3.94661 -18.415899 5.397151 -180.0 75.749642 -0.0 -180.0 73.473292 -180.0 -4.290492 -3.125281 -141.341617 131.31903 -63.18357 20.452859 -180.0 75.749642 -0.0 -180.0 73.473292 -180.0 4.290492 -3.125281 141.341617 -131.31903 -63.18357 -20.452859
276.897 53.29970000000001 91.459 -0.0 -0.0 -0.0 0.0 0.0 0.0 0.0 -0.0 -0.0 10.034043 15.923643 138.388627 -2.970543 18.523473 -139.311015 0.0 -0.0 -0.0 0.0 -0.0 -0.0 -155.563175 -3.9013 161.92047 -139.152317 37.964855 153.909579 1.726264 35.963088 1.468731 -2.737622 8.753638 -0.090583 93.028426 -51.083891 40.500925 -105.790442 -87.075199 -143.810725 10.281995 -18.182542 -4.585706 10.761673 -10.188697 2.352396 2.100045 -6.305437 -1.081362 19.893848 -51.166417 2.664999 -145.119465 0.267731 -179.212447 -136.710388 -45.952136 -169.425616 8.580128 27.211748 7.533938 -26.001531 -39.114986 -24.537676 155.563175 -3.9013 -161.92047 139.152317 37.964855 -153.909579 170.742728 -1.062008 -146.274566 -159.693871 -40.749716 -137.62316 78.030619 38.689342 -42.41267 158.808573 -37.369758 -82.352006 -10.211155 -18.05077 4.56389 168.906038 -10.966261 -106.399052 82.840589 61.110826 -74.532293 0.079011 11.606905 1.051832 0.021291 -1.725169 0.542387 1.72027 18.33504 -2.954792 -12.252484 41.424931 -10.280249 26.312425 -38.762495 25.261084 -180.0 75.749642 -0.0 -180.0 73.473292 -180.0 -7.511393 -8.077316 -88.259308 -6.100058 55.541405 -76.204715 -180.0 75.749642 -0.0 -180.0 73.473292 -180.0 7.511393 -8.077316 88.259308 4.122154 42.718369 81.649684
276.869 53.3019 91.4664 -0.0 -0.0 -0.0 0.0 0.0 0.0 0.0 -0.0 -0.0 -8.136416 9.494574 -76.224513 11.141864 5.657194 76.3491 0.0 -0.0 -0.0 0.0 -0.0 -0.0 -9.651699 34.836178 11.199233 7.248746 13.129221 -3.006965 173.707605 49.892274 152.983369 176.398491 1.021733 145.265658 -171.818129 -9.500219 89.947791 124.481133 -58.740346 90.106171 -108.427673 34.160977 91.742903 -172.566059 -43.389702 123.377001 0.541241 -1.589941 -0.294737 -166.869743 -5.852497 143.342447 -0.021306 -1.72602 -0.542654 1.602505 -44.828677 -5.00821 -1.203484 -3.047547 -1.116064 -150.025183 12.631245 -144.055435 155.762543 -5.234697 -162.200114 -38.534772 -50.998113 -22.767741 -178.3188 -30.139443 -176.295389 7.885036 24.218006 -0.850777 1.508961 1.483266 -0.250885 123.066155 -15.533056 -110.154004 0.327682 0.529888 -0.186114 -78.510637 -60.083036 -38.315712 89.835461 60.702148 -81.262754 10.288331 36.117811 -6.623097 31.710267 -66.108601 46.284392 142.309214 39.747738 -155.549411 -0.098846 0.258289 -0.091255 82.41725 -54.546307 79.533732 -180.0 75.749642 -0.0 -180.0 73.473292 -180.0 -7.494917 -9.67229 -74.310996 16.345246 61.562083 -101.871377 -180.0 75.749642 -0.0 -180.0 73.473292 -180.0 7.494917 -9.67229 74.310996 -14.194477 57.97641 101.152475
276.842 53.304399999999994 91.4724 -0.0 -0.0 -0.0 0.0 0.0 0.0 0.0 -0.0 -0.0 10.034043 15.923643 138.388627 -2.970543 18.523473 -139.311015 0.0 -0.0 -0.0 0.0 -0.0 -0.0 -155.563175 -3.9013 161.92047 -139.152317 37.964855 153.909579 1.726264 35.963088 1.468731 -2.737622 8.753638 -0.090583 93.028426 -51.083891 40.500925 -105.790442 -87.075199 -143.810725 10.281995 -18.182542 -4.585706 10.761673 -10.188697 2.352396 2.100045 -6.305437 -1.081362 19.893848 -51.166417 2.664999 -145.119465 0.267731 -179.212447 -136.710388 -45.952136 -169.425616 8.580128 27.211748 7.533938 -26.001531 -39.114986 -24.537676 155.563175 -3.9013 -161.92047 139.152317 37.964855 -153.909579 170.742728 -1.062008 -146.274566 -159.693871 -40.749716 -137.62316 78.030619 38.689342 -42.41267 158.808573 -37.369758 -82.352006 -10.211155 -18.05077 4.56389 168.906038 -10.966261 -106.399052 82.840589 61.110826 -74.532293 0.079011 11.606905 1.051832 0.021291 -1.725169 0.542387 1.72027 18.33504 -2.954792 -12.252484 41.424931 -10.280249 26.312425 -38.762495 25.261084 -180.0 75.749642 -0.0 -180.0 73.473292 -180.0 -7.511393 -8.077316 -88.259308 -6.100058 55.541405 -76.204715 -180.0 75.749642 -0.0 -180.0 73.473292 -180.0 7.511393 -8.077316 88.259308 4.122154 42.718369 81.649684
